HIERARCHY
ROOT Hips
{
	OFFSET 0.00000 0.00000 0.00000
	CHANNELS 6 Xposition Yposition Zposition Zrotation Yrotation Xrotation 
	JOINT LHipJoint
	{
		OFFSET 0 0 0
		CHANNELS 3 Zrotation Yrotation Xrotation
		JOINT LeftHip
		{
			OFFSET 1.58895 -1.83665 0.71753
			CHANNELS 3 Zrotation Yrotation Xrotation
			JOINT LeftKnee
			{
				OFFSET 2.50528 -6.88321 0.00000
				CHANNELS 3 Zrotation Yrotation Xrotation
				JOINT LeftAnkle
				{
					OFFSET 2.63244 -7.23257 0.00000
					CHANNELS 3 Zrotation Yrotation Xrotation
					JOINT LeftToe
					{
						OFFSET 0.23691 -0.65090 1.72750
						CHANNELS 3 Zrotation Yrotation Xrotation
						End Site
						{
							OFFSET 0.00000 -0.00000 0.92561
						}
					}
				}
			}
		}
	}
	JOINT RHipJoint
	{
		OFFSET 0 0 0
		CHANNELS 3 Zrotation Yrotation Xrotation
		JOINT RightHip
		{
			OFFSET -1.51435 -1.83665 0.71753
			CHANNELS 3 Zrotation Yrotation Xrotation
			JOINT RightKnee
			{
				OFFSET -2.54551 -6.99375 0.00000
				CHANNELS 3 Zrotation Yrotation Xrotation
				JOINT RightAnkle
				{
					OFFSET -2.66027 -7.30903 0.00000
					CHANNELS 3 Zrotation Yrotation Xrotation
					JOINT RightToe
					{
						OFFSET -0.22981 -0.63138 2.03959
						CHANNELS 3 Zrotation Yrotation Xrotation
						End Site
						{
							OFFSET -0.00000 -0.00000 1.07060
						}
					}
				}
			}
		}
	}
	JOINT lowerback
	{
		OFFSET 0 0 0
		CHANNELS 3 Zrotation Yrotation Xrotation
		JOINT Chest
		{
			OFFSET -0.02651 1.86275 -0.11152
			CHANNELS 3 Zrotation Yrotation Xrotation
			JOINT Chest2
			{
				OFFSET 0.01019 1.86224 0.04087
				CHANNELS 3 Zrotation Yrotation Xrotation
				JOINT lowerneck
				{
					OFFSET 0 0 0
					CHANNELS 3 Zrotation Yrotation Xrotation
					JOINT Neck
					{
						OFFSET -0.01926 1.80512 0.08867
						CHANNELS 3 Zrotation Yrotation Xrotation
						JOINT Head
						{
							OFFSET 0.05516 1.76451 -0.38475
							CHANNELS 3 Zrotation Yrotation Xrotation
							End Site
							{
								OFFSET 0.01592 1.82587 -0.14001
							}
						}
					}
				}
				JOINT LeftCollar
				{
					OFFSET 0 0 0
					CHANNELS 3 Zrotation Yrotation Xrotation
					JOINT LeftShoulder
					{
						OFFSET 3.47116 1.51376 0.14491
CHANNELS 3 Zrotation Xrotation Yrotation
						JOINT LeftElbow
						{
OFFSET 0 -4.780950 0.000000
CHANNELS 3 Zrotation Xrotation Yrotation
							JOINT LeftWrist
							{
OFFSET 0 -3.586150 -0.000000
CHANNELS 3 Zrotation Xrotation Yrotation
								JOINT lhand
								{
									OFFSET 0 0 0
CHANNELS 3 Zrotation Xrotation Yrotation
									JOINT LFingers
									{
OFFSET 0 -0.659810 0.000000
CHANNELS 3 Zrotation Xrotation Yrotation
										End Site
										{
OFFSET 0 -0.531960 0.000000
										}
									}
								}
								JOINT LThumb
								{
OFFSET 0 0.000000 0.000000
CHANNELS 3 Zrotation Xrotation Yrotation
									End Site
									{
OFFSET 0 -0.540080 0.540080
									}
								}
							}
						}
					}
				}
				JOINT RightCollar
				{
					OFFSET 0 0 0
					CHANNELS 3 Zrotation Yrotation Xrotation
					JOINT RightShoulder
					{
						OFFSET -3.31725 1.61216 0.35156
CHANNELS 3 Zrotation Xrotation Yrotation
						JOINT RightElbow
						{
OFFSET 0 -4.489130 0.000000
CHANNELS 3 Zrotation Xrotation Yrotation
							JOINT RightWrist
							{
OFFSET 0 -3.705100 0.000000
CHANNELS 3 Zrotation Xrotation Yrotation
								JOINT rhand
								{
									OFFSET 0 0 0
CHANNELS 3 Zrotation Xrotation Yrotation
									JOINT RFingers
									{
OFFSET 0 -0.449140 0.000000
CHANNELS 3 Zrotation Xrotation Yrotation
										End Site
										{
OFFSET 0 -0.362110 0.000000
										}
									}
								}
								JOINT RThumb
								{
OFFSET 0 0.000000 0.000000
CHANNELS 3 Zrotation Xrotation Yrotation
									End Site
									{
OFFSET 0 -0.367630 0.367630
									}
								}
							}
						}
					}
				}
			}
		}
	}
}
MOTION
Frames: 7
Frame Time: 0.008333333333333333
-0.707394 18.721500 5.710773 -1.361993 -0.695920 1.503347 0.000000 0.000000 0.000000 -12.220590 -3.933884 -3.971964 1.248166 7.083488 19.962857 1.225134 2.593203 -21.988765 8.593420 -16.538847 -54.673156 0.000000 0.000000 0.000000 0.000000 0.000000 0.000000 0.000000 0.000000 0.000000 0.000000 0.000000 0.000000 0.000000 0.000000 0.000000 8.855876 1.351585 8.057092 1.622961 2.889580 -2.719255 -3.648349 1.055678 -7.082531 -6.840033 -9.891844 -8.994709 4.769742 -12.716550 3.561177 1.948667 -6.238718 3.594106 0.000000 0.000000 0.000000 6.905671 27.479094 -43.012789 60.256976 -56.378035 34.555025 7.809253 -1.885293 22.224875 0.000000 0.000000 0.000000 -7.125000 0.000000 0.000000 -13.203553 8.042807 -11.545399 0.000000 0.000000 0.000000 -64.615019 -30.612995 -2.409337 -107.989128 -58.740736 -75.513094 -30.814943 23.645810 32.027589 0.000000 0.000000 0.000000 7.125000 0.000000 0.000000 1.386876 66.043081 -0.704321
-0.711085 18.721682 5.711582 -1.333871 -0.664447 1.519640 0.000000 0.000000 0.000000 -12.235252 -3.939221 -3.983212 1.247035 7.080397 19.953792 1.223773 2.574210 -21.968419 8.566040 -16.520138 -54.576789 0.000000 0.000000 0.000000 0.000000 0.000000 0.000000 0.000000 0.000000 0.000000 0.000000 0.000000 0.000000 0.000000 0.000000 0.000000 8.697678 1.355425 8.017172 1.648745 2.866826 -2.606711 -3.526825 1.061497 -6.947873 -6.779766 -9.936063 -9.402041 4.665625 -12.750242 3.647735 1.879707 -6.251639 3.690461 0.000000 0.000000 0.000000 6.922782 27.130565 -43.146332 60.234512 -56.372117 34.536324 7.737326 -1.884287 22.201942 0.000000 0.000000 0.000000 -7.125000 0.000000 0.000000 -13.248271 8.071718 -11.578994 0.000000 0.000000 0.000000 -63.635034 -29.995533 -1.367550 -109.085652 -58.577715 -76.449675 -30.500868 23.495070 32.166922 0.000000 0.000000 0.000000 7.125000 0.000000 0.000000 1.888333 66.097664 -0.961427
-0.713794 18.719810 5.713442 -1.424480 -0.715951 1.492702 0.000000 0.000000 0.000000 -12.135566 -3.893219 -3.946004 1.246540 7.078925 19.949475 1.225571 2.606771 -21.998744 8.582090 -16.531165 -54.633349 0.000000 0.000000 0.000000 0.000000 0.000000 0.000000 0.000000 0.000000 0.000000 0.000000 0.000000 0.000000 0.000000 0.000000 0.000000 8.659337 1.355485 8.080236 1.720931 2.872865 -2.582044 -3.431921 1.067777 -6.962073 -6.703367 -9.993933 -9.673965 4.425573 -12.809412 3.902703 1.763556 -6.284661 3.809042 0.000000 0.000000 0.000000 6.797248 26.856897 -43.171756 60.019038 -56.315040 34.356980 7.711555 -1.856103 22.305940 0.000000 0.000000 0.000000 -7.125000 0.000000 0.000000 -13.264416 7.972368 -11.620590 0.000000 0.000000 0.000000 -63.221325 -29.529726 -0.767553 -109.907194 -58.448110 -77.150312 -30.720987 23.461386 31.784366 0.000000 0.000000 0.000000 7.125000 0.000000 0.000000 1.377813 65.758778 -0.691368
-0.715886 18.717825 5.717303 -1.465237 -0.715924 1.433008 0.000000 0.000000 0.000000 -12.092186 -3.896218 -3.846908 1.245134 7.075239 19.938354 1.237066 2.526731 -22.058424 8.540289 -16.502596 -54.486303 0.000000 0.000000 0.000000 0.000000 0.000000 0.000000 0.000000 0.000000 0.000000 0.000000 0.000000 0.000000 0.000000 0.000000 0.000000 8.577450 1.345150 8.162006 1.751291 2.861329 -2.580564 -3.356020 1.064219 -7.013713 -6.603809 -10.007812 -9.724801 4.361290 -12.834901 3.978805 1.719341 -6.297369 3.833245 0.000000 0.000000 0.000000 6.943627 26.877099 -43.325488 60.183233 -56.358556 34.493633 7.695634 -1.917405 22.415603 0.000000 0.000000 0.000000 -7.125000 0.000000 0.000000 -13.274525 7.866672 -11.658381 0.000000 0.000000 0.000000 -63.304319 -29.366422 -1.043660 -110.440338 -58.360862 -77.604469 -31.299774 23.630283 31.467213 0.000000 0.000000 0.000000 7.125000 0.000000 0.000000 0.433497 65.591545 -0.215858
-0.713631 18.718073 5.719581 -1.486426 -0.689973 1.391534 0.000000 0.000000 0.000000 -12.082291 -3.956574 -3.745388 1.240288 7.061846 19.898733 1.232069 2.558768 -22.030962 8.546756 -16.507047 -54.509097 0.000000 0.000000 0.000000 0.000000 0.000000 0.000000 0.000000 0.000000 0.000000 0.000000 0.000000 0.000000 0.000000 0.000000 0.000000 8.558651 1.350045 8.234668 1.747741 2.875123 -2.602543 -3.354302 1.068275 -7.078335 -6.634823 -10.006013 -9.439917 4.469709 -12.852539 3.871314 1.775169 -6.306887 3.753440 0.000000 0.000000 0.000000 7.105179 26.882433 -43.518135 60.256201 -56.377851 34.554343 7.711523 -1.925333 22.398374 0.000000 0.000000 0.000000 -7.125000 0.000000 0.000000 -13.264607 7.882036 -11.645134 0.000000 0.000000 0.000000 -63.921990 -29.420030 -2.444997 -110.533384 -58.345363 -77.683631 -33.146889 24.457758 30.419697 0.000000 0.000000 0.000000 7.125000 0.000000 0.000000 -2.525183 65.002042 1.214978
-0.710521 18.716960 5.721979 -1.493780 -0.695118 1.342840 0.000000 0.000000 0.000000 -12.092284 -4.023144 -3.607027 1.232118 7.039532 19.832434 1.228163 2.585961 -22.011101 8.542984 -16.504455 -54.495675 0.000000 0.000000 0.000000 0.000000 0.000000 0.000000 0.000000 0.000000 0.000000 0.000000 0.000000 0.000000 0.000000 0.000000 0.000000 8.521808 1.336329 8.437017 1.792643 2.881178 -2.641109 -3.295588 1.065572 -7.240031 -6.802046 -10.063164 -9.372436 4.512899 -12.919366 3.948799 1.813115 -6.341987 3.790147 0.000000 0.000000 0.000000 7.058309 26.929485 -43.522374 60.361005 -56.405365 34.641654 7.585153 -1.924335 22.241056 0.000000 0.000000 0.000000 -7.125000 0.000000 0.000000 -13.342722 8.047031 -11.673068 0.000000 0.000000 0.000000 -65.058411 -29.963780 -4.725035 -109.669897 -58.485576 -76.947956 -35.846994 27.513185 30.267055 0.000000 0.000000 0.000000 7.125000 0.000000 0.000000 -6.338827 65.628938 3.171259
-0.709030 18.716880 5.724705 -1.523133 -0.737617 1.364703 0.000000 0.000000 0.000000 -12.065452 -3.998007 -3.567586 1.223465 7.015636 19.761674 1.227140 2.612652 -22.014439 8.549019 -16.508635 -54.517048 0.000000 0.000000 0.000000 0.000000 0.000000 0.000000 0.000000 0.000000 0.000000 0.000000 0.000000 0.000000 0.000000 0.000000 0.000000 8.545168 1.350659 8.772251 1.801689 2.955465 -2.844592 -3.325343 1.077424 -7.645876 -6.922895 -10.088559 -9.012637 4.622911 -12.971383 3.916176 1.883722 -6.371284 3.732769 0.000000 0.000000 0.000000 7.158463 27.187283 -43.648917 60.444086 -56.427069 34.710887 7.490824 -1.897643 22.252992 0.000000 0.000000 0.000000 -7.125000 0.000000 0.000000 -13.401258 8.043762 -11.728167 0.000000 0.000000 0.000000 -66.304833 -30.593519 -7.198324 -107.850759 -58.760734 -75.394848 -38.528645 31.747802 30.098393 0.000000 0.000000 0.000000 7.125000 0.000000 0.000000 -10.285944 66.244928 5.296216
